<?xml version="1.0" encoding="UTF-8"?>
<svg version="1.1" xmlns="http://www.w3.org/2000/svg" width="1024" height="1024">
<path d="M0 0 C337.92 0 675.84 0 1024 0 C1024 337.92 1024 675.84 1024 1024 C686.08 1024 348.16 1024 0 1024 C0 686.08 0 348.16 0 0 Z " fill="#F8F8F8" transform="translate(0,0)"/>
<path d="M0 0 C1.11181641 0.00193359 2.22363281 0.00386719 3.36914062 0.00585938 C4.52220703 0.01810547 5.67527344 0.03035156 6.86328125 0.04296875 C7.99701172 0.04361328 9.13074219 0.04425781 10.29882812 0.04492188 C16.98145719 0.07958681 23.54260525 0.41203485 30.17578125 1.23046875 C30.17578125 1.89046875 30.17578125 2.55046875 30.17578125 3.23046875 C30.89378906 3.35292969 31.61179687 3.47539062 32.3515625 3.6015625 C35.20268186 4.23645907 37.67572374 5.15858366 40.36328125 6.29296875 C43.66599898 7.77094336 43.66599898 7.77094336 47.17578125 8.23046875 C47.83578125 7.90046875 48.49578125 7.57046875 49.17578125 7.23046875 C57.44051646 34.05396203 54.24788576 63.70689339 41.43359375 88.6171875 C30.30759671 107.75297909 15.09182831 121.15762251 -4.88964844 130.32763672 C-8.23720787 131.88988745 -11.52612284 133.56679509 -14.82421875 135.23046875 C-4.90436402 149.15857177 5.06691715 163.04712472 15.23828125 176.79296875 C20.14945176 183.43355791 24.96557887 190.1320115 29.71166992 196.89135742 C38.2762623 209.08297321 47.06586878 221.10965394 55.9206543 233.09155273 C60.65943187 239.51056904 65.34188101 245.96897866 70.00195312 252.4453125 C70.50662109 253.1465625 71.01128906 253.8478125 71.53125 254.5703125 C71.99450684 255.21597168 72.45776367 255.86163086 72.93505859 256.52685547 C73.94146195 257.90872926 74.98494145 259.26354749 76.0390625 260.609375 C77.17578125 262.23046875 77.17578125 262.23046875 77.17578125 264.23046875 C69.39608371 264.53313984 61.61778983 264.76336829 53.83366585 264.90402699 C50.21770945 264.97158415 46.60580855 265.06298056 42.9921875 265.21118164 C17.67220311 266.22269569 17.67220311 266.22269569 12.16821289 261.51391602 C9.43725614 258.39634004 7.82532384 255.01142065 6.17578125 251.23046875 C5.3128608 249.9694924 4.41855742 248.72814553 3.46875 247.53125 C2.77394531 246.54511719 2.07914063 245.55898438 1.36328125 244.54296875 C0.53178261 243.36811245 -0.30027854 242.19365412 -1.1328125 241.01953125 C-1.5644873 240.41012695 -1.99616211 239.80072266 -2.44091797 239.17285156 C-5.00520435 235.57216988 -7.60537792 231.99738479 -10.19921875 228.41796875 C-14.53638268 222.42843028 -18.82499973 216.40767582 -23.07421875 210.35546875 C-27.15152582 204.55131775 -31.32609224 198.84564932 -35.609375 193.19140625 C-38.95707073 188.71600349 -42.18396299 184.15664454 -45.421875 179.6015625 C-47.53549799 176.62941118 -49.67421447 173.67645047 -51.82421875 170.73046875 C-54.36488032 167.24787854 -56.88434025 163.75158615 -59.38427734 160.23974609 C-63.46351538 154.50972869 -67.56320707 148.79466037 -71.69921875 143.10546875 C-72.15143799 142.47801758 -72.60365723 141.85056641 -73.06958008 141.20410156 C-75.45734605 137.93255498 -77.94153079 135.08770251 -80.82421875 132.23046875 C-81.29859375 131.26109375 -81.77296875 130.29171875 -82.26171875 129.29296875 C-83.98622681 125.91293296 -86.12359056 123.85810699 -88.82421875 121.23046875 C-88.82421875 120.57046875 -88.82421875 119.91046875 -88.82421875 119.23046875 C-89.48421875 119.23046875 -90.14421875 119.23046875 -90.82421875 119.23046875 C-90.81261719 120.32101562 -90.80101562 121.4115625 -90.7890625 122.53515625 C-90.71081874 133.47216705 -91.10189506 144.31822151 -91.82421875 155.23046875 C-94.46356183 152.59112567 -94.71504341 150.33872964 -95.63671875 146.73046875 C-97.39747362 140.39691095 -99.51263396 134.89854514 -102.82421875 129.23046875 C-103.35402344 128.29847656 -103.88382813 127.36648438 -104.4296875 126.40625 C-110.36336484 116.7276505 -118.63449704 108.09626909 -128.25390625 101.98046875 C-129.10210937 101.40296875 -129.9503125 100.82546875 -130.82421875 100.23046875 C-130.82421875 99.57046875 -130.82421875 98.91046875 -130.82421875 98.23046875 C-131.69433594 97.96492188 -132.56445312 97.699375 -133.4609375 97.42578125 C-136.77486535 96.24800898 -139.60825249 94.88691949 -142.63671875 93.10546875 C-143.59191406 92.56664062 -144.54710937 92.0278125 -145.53125 91.47265625 C-149.59687192 87.49707365 -148.87093264 81.31634509 -148.95361328 75.87866211 C-148.96016199 73.85922254 -148.96101077 71.83975877 -148.95703125 69.8203125 C-148.95798798 68.73520889 -148.9589447 67.65010529 -148.95993042 66.53211975 C-148.96060854 64.24187156 -148.95878 61.95162141 -148.95458984 59.66137695 C-148.94927298 56.20324235 -148.95452853 52.74523979 -148.9609375 49.28710938 C-148.96402057 37.88683884 -148.79437884 26.59174474 -147.82421875 15.23046875 C-140.54000327 15.20733959 -133.25579565 15.18955074 -125.97155094 15.17865658 C-122.58950062 15.173429 -119.20747535 15.16633364 -115.82543945 15.1550293 C-111.94092098 15.14212608 -108.05641278 15.13723951 -104.171875 15.1328125 C-102.95210464 15.12765121 -101.73233429 15.12248993 -100.4756012 15.11717224 C-98.79397133 15.11705894 -98.79397133 15.11705894 -97.07836914 15.11694336 C-96.08575577 15.11472275 -95.0931424 15.11250214 -94.07044983 15.11021423 C-91.82421875 15.23046875 -91.82421875 15.23046875 -90.82421875 16.23046875 C-90.72458017 18.45904684 -90.69622081 20.69082692 -90.69482422 22.92163086 C-90.6930719 23.62082138 -90.69131958 24.3200119 -90.68951416 25.04039001 C-90.6850955 27.36288907 -90.68803398 29.6853126 -90.69140625 32.0078125 C-90.69073314 33.61584996 -90.68976305 35.22388733 -90.68850708 36.83192444 C-90.68703003 40.20721401 -90.68918461 43.58247717 -90.69384766 46.95776367 C-90.69954039 51.29023565 -90.69626889 55.62264563 -90.69027519 59.95511532 C-90.68666588 63.27759775 -90.68780995 66.60006542 -90.69040298 69.92254829 C-90.69107146 71.52018809 -90.69024657 73.11782921 -90.68792343 74.71546745 C-90.68539136 76.94698522 -90.68924556 79.1784019 -90.69482422 81.40991211 C-90.69561981 82.68152695 -90.69641541 83.95314178 -90.69723511 85.26329041 C-90.82421875 88.23046875 -90.82421875 88.23046875 -91.82421875 90.23046875 C-84.18849579 90.13828606 -76.55309343 90.03099177 -68.91772461 89.91308594 C-66.31914108 89.87475443 -63.72050373 89.83990901 -61.12182617 89.80859375 C-57.39091732 89.76303409 -53.66038035 89.70502413 -49.9296875 89.64453125 C-48.76398727 89.63298004 -47.59828705 89.62142883 -46.39726257 89.60952759 C-44.77592155 89.57972305 -44.77592155 89.57972305 -43.12182617 89.54931641 C-41.69286263 89.5293309 -41.69286263 89.5293309 -40.23503113 89.50894165 C-37.56380527 89.38587603 -37.56380527 89.38587603 -34.82421875 87.23046875 C-33.66921875 86.98296875 -32.51421875 86.73546875 -31.32421875 86.48046875 C-18.37643845 83.40447674 -10.4220731 75.07719513 -3.40234375 64.3671875 C0.65841102 56.29593483 1.65810371 48.68593203 1.55078125 39.73046875 C1.56818359 38.27833984 1.56818359 38.27833984 1.5859375 36.796875 C1.55076198 28.06162172 -0.11879362 20.25547892 -4.82421875 12.79296875 C-5.56671875 11.58833984 -5.56671875 11.58833984 -6.32421875 10.359375 C-7.73210432 8.21227199 -7.73210432 8.21227199 -9.51171875 6.6328125 C-10.82421875 5.23046875 -10.82421875 5.23046875 -10.82421875 2.23046875 C-7.06221582 0.4945897 -4.1313209 -0.01698487 0 0 Z " fill="#234774" transform="translate(623.82421875,358.76953125)"/>
<path d="M0 0 C16.44800802 5.84107705 28.8368977 23.04358153 36.5625 38.03125 C44.38076471 55.34312185 44.45389052 72.01493261 38 89.6875 C37.67 90.59886719 37.34 91.51023437 37 92.44921875 C33.62228426 101.06503274 29.10411872 104.90176332 21 109 C19.93007813 109.57105469 18.86015625 110.14210938 17.7578125 110.73046875 C2.64513923 118.62339054 -12.32664985 122.33919735 -29.35620117 122.22705078 C-31.12888367 122.22748886 -31.12888367 122.22748886 -32.93737793 122.22793579 C-36.80598543 122.22655322 -40.67439529 122.21104269 -44.54296875 122.1953125 C-47.24009594 122.19046 -49.93722296 122.18863488 -52.63435364 122.18673706 C-58.98410371 122.18054987 -65.33378396 122.16417693 -71.68350345 122.14403808 C-78.91940301 122.12159251 -86.15530612 122.110664 -93.39123189 122.10064721 C-108.26086 122.07980786 -123.13042298 122.0446863 -138 122 C-136.56091597 118.94911317 -135.11986332 115.89916012 -133.6784668 112.84936523 C-133.27313469 111.98999107 -132.86780258 111.13061691 -132.45018768 110.24520111 C-129.70586564 104.44186316 -126.86513342 98.71065994 -123.8125 93.0625 C-121.08591851 87.97804002 -118.42104949 82.87232183 -115.84643555 77.70874023 C-115.31173141 76.63704086 -114.77702728 75.56534149 -114.22612 74.46116638 C-113.8215004 73.64898148 -113.4168808 72.83679657 -113 72 C-111.7863678 72.00079559 -110.5727356 72.00159119 -109.32232666 72.00241089 C-97.84727288 72.00602374 -86.37266545 71.97806262 -74.89775467 71.9197216 C-68.99927539 71.89073272 -63.10119159 71.87260861 -57.20263672 71.87988281 C-51.50295935 71.88650255 -45.80406166 71.86384005 -40.10454559 71.82144547 C-37.93744433 71.81036135 -35.77026355 71.80957135 -33.60315704 71.81957626 C-16.88875129 71.95925788 -16.88875129 71.95925788 -2 65 C-1.37522766 64.58668427 -0.75045532 64.17336853 -0.10675049 63.74752808 C3.84713815 60.83141317 5.81618321 57.28364063 8 53 C8.66 53 9.32 53 10 53 C10.2165625 51.576875 10.2165625 51.576875 10.4375 50.125 C11 47 11 47 12 45 C12.35542325 40.50711752 12.37138291 36.00508178 12.4375 31.5 C12.48326172 30.25734375 12.52902344 29.0146875 12.57617188 27.734375 C12.72429795 15.52363428 7.98847743 8.7492848 0 0 Z " fill="#212D59" transform="translate(463,501)"/>
<path d="M0 0 C2.25970452 0.00748197 4.51941563 0.01316562 6.77912903 0.01715088 C12.65960344 0.03225339 18.53966789 0.07139842 24.41998291 0.1159668 C30.44724994 0.15725575 36.47458473 0.17523294 42.50195312 0.1953125 C54.27882365 0.23791096 66.05539305 0.30597038 77.83203125 0.390625 C76.41673238 4.7657367 74.76387987 8.71122523 72.63671875 12.79296875 C72.32784729 13.38841995 72.01897583 13.98387115 71.70074463 14.59736633 C70.70718596 16.50991851 69.70733883 18.41909532 68.70703125 20.328125 C68.0242951 21.63819958 67.34184125 22.9484213 66.65966797 24.25878906 C64.72390723 27.97298108 62.77916104 31.68238024 60.83203125 35.390625 C60.34669922 36.31568848 59.86136719 37.24075195 59.36132812 38.19384766 C53.07976947 50.14288678 53.07976947 50.14288678 51.83203125 51.390625 C49.44598435 51.4943342 47.08794869 51.53424402 44.70117188 51.5324707 C43.58147003 51.53768234 43.58147003 51.53768234 42.43914795 51.54299927 C40.81147512 51.55037124 39.18379215 51.5557089 37.55610657 51.55928993 C34.97429235 51.56644502 32.39266936 51.58210763 29.81091309 51.60063171 C22.46772001 51.65312221 15.12462631 51.70100983 7.78125 51.71655273 C3.29300795 51.72667637 -1.19476101 51.75612021 -5.68281555 51.79787254 C-7.38906767 51.8101348 -9.09538681 51.81531257 -10.80168152 51.81307411 C-23.52096529 51.70034108 -23.52096529 51.70034108 -35.16796875 56.390625 C-35.96589844 56.83664062 -36.76382813 57.28265625 -37.5859375 57.7421875 C-43.78458934 62.20302746 -47.75431999 68.14967871 -50.16796875 75.390625 C-51.57194692 89.54682387 -51.57194692 89.54682387 -46.87890625 102.42578125 C-46.31429687 103.07417969 -45.7496875 103.72257812 -45.16796875 104.390625 C-44.39710938 105.29683594 -43.62625 106.20304687 -42.83203125 107.13671875 C-40.65961036 109.60724787 -38.4438194 112.01560874 -36.16796875 114.390625 C-44.77990571 114.390625 -53.82557138 103.7720249 -59.74707031 97.88183594 C-65.85544645 91.47118964 -70.60633425 84.28001677 -74.29296875 76.25390625 C-75.0255606 74.41987328 -75.0255606 74.41987328 -76.16796875 73.390625 C-76.53639309 71.91980596 -76.86375299 70.43855353 -77.16796875 68.953125 C-77.66225656 66.54733355 -78.06838998 64.58978254 -79.16796875 62.390625 C-80.53108346 47.3850822 -79.07810746 34.38585288 -71.16796875 21.390625 C-71.16796875 20.400625 -71.16796875 19.410625 -71.16796875 18.390625 C-50.67537789 2.18316275 -25.07205171 -0.24768415 0 0 Z " fill="#29689A" transform="translate(435.16796875,296.609375)"/>
<path d="M0 0 C5.259375 -0.0825 10.51875 -0.165 15.9375 -0.25 C17.578396 -0.28641602 19.21929199 -0.32283203 20.90991211 -0.36035156 C35.5746992 -0.47155034 35.5746992 -0.47155034 42 4 C46.8091167 9.04957253 47.29949397 12.45876213 47.2109375 19.2421875 C46.81806102 24.37868369 44.83754119 27.44325506 41.0625 30.75 C38.69065874 32.49257725 36.62364386 33.75334417 34 35 C34.40089844 35.40347656 34.80179688 35.80695312 35.21484375 36.22265625 C39.45268782 40.74878904 42.76106344 45.57756639 45.9375 50.875 C46.3389624 51.54152588 46.7404248 52.20805176 47.15405273 52.89477539 C50 57.73368986 50 57.73368986 50 60 C45.38 60 40.76 60 36 60 C35.19175781 58.51886719 34.38351562 57.03773438 33.55078125 55.51171875 C32.47201743 53.56994387 31.39255366 51.62855774 30.3125 49.6875 C29.78205078 48.71103516 29.25160156 47.73457031 28.70507812 46.72851562 C28.17978516 45.79072266 27.65449219 44.85292969 27.11328125 43.88671875 C26.39845581 42.59060669 26.39845581 42.59060669 25.66918945 41.26831055 C23.66349707 38.54271629 22.07584193 37.40965822 19 36 C15.535 35.505 15.535 35.505 12 35 C12 43.25 12 51.5 12 60 C8.04 60 4.08 60 0 60 C0 40.2 0 20.4 0 0 Z " fill="#5D6062" transform="translate(626,725)"/>
<path d="M0 0 C3.75086125 1.40657297 6.39066705 2.95577823 9 6 C9.94875 5.195625 10.8975 4.39125 11.875 3.5625 C16.10090696 -0.02033416 18.96679293 -0.29010385 24.4609375 -0.2109375 C27.9691635 0.08051512 30.13689537 0.95492526 33 3 C36.84232414 7.67269406 37.55588077 11.36190355 37.390625 17.2421875 C37.38496521 18.01055939 37.37930542 18.77893127 37.37347412 19.57058716 C37.35122173 22.00604621 37.30105041 24.43999157 37.25 26.875 C37.22992042 28.5338328 37.2116722 30.19268884 37.1953125 31.8515625 C37.15139406 35.90161799 37.08244763 39.95055306 37 44 C33.37 44 29.74 44 26 44 C25.9906543 43.08186523 25.98130859 42.16373047 25.97167969 41.21777344 C25.92760069 37.80294722 25.86596268 34.38936892 25.79248047 30.97509766 C25.76429912 29.49897804 25.74307034 28.02270831 25.72900391 26.54638672 C25.70753302 24.42076943 25.66086957 22.29695121 25.609375 20.171875 C25.58842773 18.8940918 25.56748047 17.61630859 25.54589844 16.29980469 C25.24912096 12.94659816 25.24912096 12.94659816 23.18457031 10.55175781 C20.96254229 8.6561601 20.96254229 8.6561601 17.4375 9 C13.56268515 10.12721886 12.89772901 10.5626306 11 14 C10.49513031 17.38526241 10.49513031 17.38526241 10.48828125 21.171875 C10.47033005 21.8542926 10.45237885 22.53671021 10.43388367 23.23980713 C10.37989617 25.4098094 10.34592417 27.57959325 10.3125 29.75 C10.27931648 31.22529074 10.24482585 32.70055269 10.20898438 34.17578125 C10.12417842 37.78364427 10.05731163 41.39158362 10 45 C8.18757948 45.02687279 6.37504767 45.04633715 4.5625 45.0625 C3.55316406 45.07410156 2.54382813 45.08570313 1.50390625 45.09765625 C-1 45 -1 45 -2 44 C-2.12282584 41.57713663 -2.18602019 39.17829155 -2.2109375 36.75390625 C-2.23900206 35.26235874 -2.2676665 33.77082242 -2.296875 32.27929688 C-2.33819532 29.91789004 -2.37506468 27.55669299 -2.40136719 25.19506836 C-2.42889823 22.92257078 -2.47476395 20.65103589 -2.5234375 18.37890625 C-2.52669037 17.67053116 -2.52994324 16.96215607 -2.53329468 16.23231506 C-2.55488137 14.02549742 -2.55488137 14.02549742 -3 11 C-5.87594836 8.67122638 -5.87594836 8.67122638 -9.4375 9.0625 C-13.76870332 10.20229035 -14.63801346 11.26802314 -17 15 C-17.63635465 18.27597454 -17.63635465 18.27597454 -17.609375 21.83203125 C-17.64160156 23.12431641 -17.67382812 24.41660156 -17.70703125 25.74804688 C-17.7217735 27.10286009 -17.73609112 28.45767798 -17.75 29.8125 C-17.77817759 31.18688639 -17.80810754 32.56123805 -17.83984375 33.93554688 C-17.91047274 37.2904241 -17.96320774 40.64460896 -18 44 C-21.63 44 -25.26 44 -29 44 C-29 29.81 -29 15.62 -29 1 C-25.7 1 -22.4 1 -19 1 C-19 2.65 -19 4.3 -19 6 C-18.55011719 5.566875 -18.10023438 5.13375 -17.63671875 4.6875 C-11.96580155 -0.22199144 -7.3862231 -1.15197975 0 0 Z " fill="#5D6061" transform="translate(450,741)"/>
<path d="M0 0 C6.2830179 3.52608159 10.41808397 8.0681914 12.6875 14.9375 C13.81379354 23.31949511 12.4937885 29.95977538 7.6875 36.9375 C2.34691368 42.41862807 -3.29547577 44.12507953 -10.75 44.375 C-18.3278079 44.17489715 -22.73856022 42.45424112 -28.125 37.1875 C-32.6126975 30.52006372 -34.59260535 24.00825946 -33.3125 15.9375 C-31.05294602 9.12871067 -27.43482277 3.77692276 -21.3125 -0.0625 C-14.2780172 -3.37892011 -7.05079409 -3.23782689 0 0 Z " fill="#5C5F62" transform="translate(763.3125,742.0625)"/>
<path d="M0 0 C5.44606085 3.23847978 10.06068447 8.16561614 12.41796875 14.08984375 C13.24672513 21.91484587 13.51198083 29.70376446 8.41796875 36.08984375 C4.17252748 40.4830382 0.18253783 43.8495821 -6.04296875 44.390625 C-7.33460938 44.39449219 -8.62625 44.39835938 -9.95703125 44.40234375 C-11.24351562 44.41910156 -12.53 44.43585937 -13.85546875 44.453125 C-20.3357155 43.82140283 -24.43849658 40.99666112 -28.58203125 36.08984375 C-33.06066618 29.81683718 -33.39493343 23.61935016 -32.58203125 16.08984375 C-31.35045935 9.6130951 -27.8095382 5.03714492 -22.58203125 1.08984375 C-16.13923971 -2.22580973 -6.82746991 -2.40665732 0 0 Z " fill="#5C5F61" transform="translate(529.58203125,741.91015625)"/>
<path d="M0 0 C4.23259079 2.66837245 6.22257908 5.32257653 8 10 C8.1875 13.375 8.1875 13.375 8 16 C4.37 16 0.74 16 -3 16 C-3.5878125 14.576875 -3.5878125 14.576875 -4.1875 13.125 C-5.70629467 9.94791475 -5.70629467 9.94791475 -8.1875 8.625 C-12.72959575 7.61564539 -17.08481508 7.23392603 -21.5 9 C-21.995 9.33 -22.49 9.66 -23 10 C-23.33397787 12.87413125 -23.33397787 12.87413125 -23 16 C-19.11150009 20.1172352 -13.02092937 20.73595757 -7.73046875 22.01757812 C-0.49689169 23.87712497 4.65035014 26.71717242 9 33 C10.71728565 38.15185695 10.4380073 42.50562216 8.9375 47.625 C5.88558071 52.9412465 1.61606663 56.54253304 -4 59 C-7.07318959 59.43105795 -10.14945729 59.37022258 -13.25 59.375 C-14.07113281 59.39949219 -14.89226562 59.42398438 -15.73828125 59.44921875 C-21.61596479 59.47716336 -26.12492727 58.37580696 -31 55 C-35.8628105 50.14305449 -36.68791106 45.76192703 -37 39 C-33.37 39 -29.74 39 -26 39 C-23 44.75 -23 44.75 -23 47 C-17.16404013 49.27744775 -12.5024822 50.06587205 -6.625 47.5625 C-4.15747876 46.23945813 -4.15747876 46.23945813 -3 45 C-2.95907063 42.66702567 -2.95758277 40.33294775 -3 38 C-8.59878703 34.95004349 -14.17262841 33.60886467 -20.34375 32.16015625 C-26.43131554 30.22852488 -30.32527549 27.17183449 -34 22 C-36.09790168 17.80419663 -35.40124136 12.56936058 -35 8 C-32.82448365 2.56120912 -29.01254368 0.27211126 -23.84765625 -2.0859375 C-15.89668273 -4.63810184 -7.4669438 -3.5724803 0 0 Z " fill="#5E6162" transform="translate(300,727)"/>
<path d="M0 0 C0.79019531 -0.01611328 1.58039062 -0.03222656 2.39453125 -0.04882812 C7.35742122 -0.05295699 10.92329978 0.40315947 15.125 3.3125 C18.6295099 7.71892649 19.63080975 10.68582322 19.69921875 16.28515625 C19.72693359 17.59677734 19.75464844 18.90839844 19.78320312 20.25976562 C19.79383169 21.631504 19.80358937 23.00324939 19.8125 24.375 C19.8509764 27.07439002 19.90009347 29.77342128 19.94921875 32.47265625 C19.96601685 34.26135132 19.96601685 34.26135132 19.9831543 36.08618164 C20.05676978 39.63372951 20.05676978 39.63372951 21.125 44.3125 C17.495 44.3125 13.865 44.3125 10.125 44.3125 C9.465 42.9925 8.805 41.6725 8.125 40.3125 C7.46757813 40.85390625 7.46757813 40.85390625 6.796875 41.40625 C1.63670112 45.18198698 -2.65031201 46.13315192 -9.0234375 45.875 C-13.41939049 45.00785311 -16.20496996 42.86389918 -18.875 39.3125 C-20.62767445 34.05447664 -20.64611783 29.9472698 -18.3125 25 C-13.68020139 19.89259384 -6.94594061 18.65534697 -0.4375 17.125 C0.29404297 16.94775391 1.02558594 16.77050781 1.77929688 16.58789062 C3.55988415 16.15729109 5.34226226 15.73410784 7.125 15.3125 C6.74595792 12.02174004 6.74595792 12.02174004 5.125 9.3125 C2.09334532 8.93738654 -0.84728505 8.89693128 -3.875 9.3125 C-4.803125 10.3025 -4.803125 10.3025 -5.75 11.3125 C-8.51739938 13.91711118 -9.8921047 13.58149692 -13.625 13.5625 C-15.37580759 13.49833428 -17.12638208 13.42103491 -18.875 13.3125 C-17.46936777 8.27565119 -15.66634179 4.29545816 -11.296875 1.19140625 C-7.56784372 -0.16187123 -3.93562865 -0.01589511 0 0 Z " fill="#5E6061" transform="translate(701.875,740.6875)"/>
<path d="M0 0 C0.7425 -0.01611328 1.485 -0.03222656 2.25 -0.04882812 C7.89884562 -0.05381827 11.97939069 1.12303023 16.4375 4.8125 C19.15196919 8.24130319 18.80552822 12.06480032 18.90625 16.24609375 C18.93386414 17.25761253 18.93386414 17.25761253 18.96203613 18.28956604 C19.02069068 20.4429568 19.07353548 22.59642614 19.125 24.75 C19.19284831 27.58219153 19.2665482 30.4141435 19.34375 33.24609375 C19.37404297 34.50478271 19.40433594 35.76347168 19.43554688 37.06030273 C19.53327825 40.47178063 19.53327825 40.47178063 20.625 44.3125 C16.995 44.3125 13.365 44.3125 9.625 44.3125 C9.295 42.9925 8.965 41.6725 8.625 40.3125 C8.19832031 40.6734375 7.77164062 41.034375 7.33203125 41.40625 C1.920935 45.42273382 -2.69377966 46.06775665 -9.37109375 45.8046875 C-14.59548439 44.94867551 -16.65621104 42.65630312 -19.75 38.4375 C-21.09582613 33.86169115 -20.90401503 30.43665694 -18.875 26.125 C-12.27999159 18.70561553 -2.66899872 17.90990603 6.625 16.3125 C6.87530977 13.89630177 6.87530977 13.89630177 6.625 11.3125 C2.83817793 8.78795195 0.07065082 8.69066575 -4.375 9.3125 C-6.54976401 10.85588091 -7.19332637 11.94915273 -8.375 14.3125 C-11.675 13.9825 -14.975 13.6525 -18.375 13.3125 C-18.10190064 9.39807587 -17.62507787 7.6098899 -15.0625 4.5625 C-10.12102213 0.42544876 -6.37946423 -0.0274032 0 0 Z " fill="#5E6061" transform="translate(390.375,740.6875)"/>
<path d="M0 0 C0.33 0 0.66 0 1 0 C1 22.11 1 44.22 1 67 C-17.15 67 -35.3 67 -54 67 C-54 66.34 -54 65.68 -54 65 C-53.23816406 64.64808594 -52.47632813 64.29617188 -51.69140625 63.93359375 C-44.74049156 60.60999784 -38.84365437 57.00291547 -33 52 C-32.22269531 51.37867188 -31.44539063 50.75734375 -30.64453125 50.1171875 C-14.850904 36.9097981 -5.5262522 19.48859737 0 0 Z " fill="#242E57" transform="translate(531,556)"/>
<path d="M0 0 C3.63 0 7.26 0 11 0 C11.33 6.93 11.66 13.86 12 21 C15.465 18.525 15.465 18.525 19 16 C23.67389027 14.9567822 27.89491976 15.61117547 32.375 17.1875 C35.67099603 19.46330678 38.22963251 21.83481234 39.59936523 25.68457031 C40.17131154 28.99007842 40.12226194 32.26655409 40.09765625 35.609375 C40.0962413 36.33618469 40.09482635 37.06299438 40.09336853 37.81182861 C40.08778792 40.12459494 40.07523904 42.43726312 40.0625 44.75 C40.05748249 46.32161318 40.05292002 47.89322789 40.04882812 49.46484375 C40.03782485 53.30993343 40.02057361 57.1549501 40 61 C36.37 61 32.74 61 29 61 C28.99589111 60.08710205 28.99178223 59.1742041 28.98754883 58.23364258 C28.96050598 54.83165222 28.91136138 51.43144939 28.84741211 48.0300293 C28.82428007 46.56074053 28.8098476 45.09128708 28.80444336 43.62182617 C28.79511721 41.50335655 28.75405873 39.38745935 28.70703125 37.26953125 C28.6913208 35.99698486 28.67561035 34.72443848 28.65942383 33.41333008 C27.83393288 29.14039823 26.41851069 27.62082704 23 25 C19.39969811 24.6690684 19.39969811 24.6690684 16 26 C12.06398894 29.85081028 11.48290156 32.62953317 11.390625 38.05078125 C11.37408875 38.70958786 11.35755249 39.36839447 11.34051514 40.04716492 C11.29222444 42.13570651 11.27070918 44.22352122 11.25 46.3125 C11.22182404 47.73506224 11.19189432 49.1575909 11.16015625 50.58007812 C11.08647437 54.05322825 11.03678285 57.52624072 11 61 C7.37 61 3.74 61 0 61 C0 40.87 0 20.74 0 0 Z " fill="#5F6263" transform="translate(321,725)"/>
<path d="M0 0 C-1.55588406 4.79730918 -3.30354188 9.50666093 -5.09765625 14.21875 C-10.82512057 31.8722331 -6.72921401 51.72148496 1 68 C2.76159901 71.31673969 4.69278399 74.52024446 6.6796875 77.70703125 C8 80 8 80 8 82 C8.66 82 9.32 82 10 82 C10.25652344 82.53367187 10.51304687 83.06734375 10.77734375 83.6171875 C14.23435093 90.34496579 18.78570228 95.55849976 24 101 C15.38806304 101 6.34239737 90.3813999 0.42089844 84.49121094 C-5.6874777 78.08056464 -10.4383655 70.88939177 -14.125 62.86328125 C-14.85759185 61.02924828 -14.85759185 61.02924828 -16 60 C-16.36842434 58.52918096 -16.69578424 57.04792853 -17 55.5625 C-17.49428781 53.15670855 -17.90042123 51.19915754 -19 49 C-20.36311471 33.9944572 -18.91013871 20.99522788 -11 8 C-11 7.01 -11 6.02 -11 5 C-9.35546875 3.61328125 -9.35546875 3.61328125 -7.1875 2.3125 C-6.12595703 1.65701172 -6.12595703 1.65701172 -5.04296875 0.98828125 C-3 0 -3 0 0 0 Z " fill="#284767" transform="translate(375,310)"/>
<path d="M0 0 C16.44800802 5.84107705 28.8368977 23.04358153 36.5625 38.03125 C43.70061502 53.83707612 44.88458318 70.04084714 39.1484375 86.43359375 C38.43229167 88.2890625 37.71614583 90.14453125 37 92 C36.34 92 35.68 92 35 92 C34.7525 92.70125 34.505 93.4025 34.25 94.125 C32.83911974 97.37002459 31.02104602 100.10316737 29 103 C28.34 102.67 27.68 102.34 27 102 C27.21148682 101.47245117 27.42297363 100.94490234 27.64086914 100.40136719 C30.32151347 92.81342065 30.4921278 85.431926 30.44604492 77.48828125 C30.43756595 75.26727474 30.46632887 73.04887704 30.49804688 70.828125 C30.57799001 54.46707535 26.37416114 38.03092513 15.6796875 25.33984375 C13.77052743 22.68033937 12.75792466 20.12920986 11.625 17.0625 C9.3934709 11.20191852 6.14826045 7.31804128 1.79296875 2.86328125 C0 1 0 1 0 0 Z " fill="#1E2B47" transform="translate(463,501)"/>
<path d="M0 0 C3.96 0 7.92 0 12 0 C12.02255497 7.80575587 12.04091738 15.61149407 12.05181217 23.41727352 C12.05704002 27.0414596 12.06413587 30.6656223 12.07543945 34.28979492 C12.08627184 37.78459975 12.09227758 41.27938204 12.09487724 44.77420235 C12.09763551 46.76239389 12.10544688 48.75057631 12.11329651 50.73875427 C12.11337204 51.93992386 12.11344757 53.14109344 12.11352539 54.37866211 C12.115746 55.44233505 12.11796661 56.506008 12.12025452 57.60191345 C12 60 12 60 11 61 C7.37 61 3.74 61 0 61 C0 40.87 0 20.74 0 0 Z " fill="#686B6B" transform="translate(577,725)"/>
<path d="M0 0 C1.11181641 0.00193359 2.22363281 0.00386719 3.36914062 0.00585938 C4.52220703 0.01810547 5.67527344 0.03035156 6.86328125 0.04296875 C7.99701172 0.04361328 9.13074219 0.04425781 10.29882812 0.04492188 C16.98145719 0.07958681 23.54260525 0.41203485 30.17578125 1.23046875 C30.17578125 1.89046875 30.17578125 2.55046875 30.17578125 3.23046875 C30.89378906 3.35292969 31.61179687 3.47539062 32.3515625 3.6015625 C35.20268186 4.23645907 37.67572374 5.15858366 40.36328125 6.29296875 C43.66599898 7.77094336 43.66599898 7.77094336 47.17578125 8.23046875 C47.83578125 7.90046875 48.49578125 7.57046875 49.17578125 7.23046875 C50.64248238 12.45559154 51.40155527 16.81189215 51.17578125 22.23046875 C47.25469433 21.59131722 43.93499933 20.38352913 40.30078125 18.79296875 C31.32882387 14.98701617 23.07344444 13.19158567 13.35546875 13.16015625 C12.32550781 13.14984375 11.29554688 13.13953125 10.234375 13.12890625 C8.10421007 13.11322405 5.97374515 13.12121106 3.84375 13.15234375 C-3.73987214 13.01913081 -3.73987214 13.01913081 -6.90136719 10.71972656 C-9.52607095 7.79329733 -10.82421875 6.24087238 -10.82421875 2.23046875 C-7.06221582 0.4945897 -4.1313209 -0.01698487 0 0 Z " fill="#1A4367" transform="translate(623.82421875,358.76953125)"/>
<path d="M0 0 C2.64 0 5.28 0 8 0 C7.42552781 4.25329612 6.41292435 7.81308987 4.70703125 11.74609375 C4.24401611 12.82455566 3.78100098 13.90301758 3.30395508 15.01416016 C2.8117749 16.1438623 2.31959473 17.27356445 1.8125 18.4375 C0.81138654 20.76644877 -0.18861882 23.09587418 -1.1875 25.42578125 C-1.67089844 26.55064941 -2.15429688 27.67551758 -2.65234375 28.83447266 C-5.21161141 34.84596985 -7.62039664 40.91544457 -10 47 C-6.83013868 48.05662044 -4.62223495 48.11454155 -1.29443359 48.09765625 C-0.12246429 48.09435303 1.049505 48.0910498 2.25698853 48.08764648 C3.52569794 48.07934814 4.79440735 48.0710498 6.1015625 48.0625 C8.0977036 48.05671315 10.09384474 48.05093214 12.0899868 48.04548645 C16.30773548 48.03234876 20.5254468 48.01028481 24.74316406 47.98962402 C28.20412933 47.97298862 31.66507504 47.95838648 35.12606812 47.94897461 C37.72050741 47.94148619 40.31493874 47.92948687 42.90933228 47.91235352 C49.36546926 47.89444574 55.60134812 48.12585312 62 49 C62 49.33 62 49.66 62 50 C32.95301204 50.87551922 4.04381918 51.03076809 -25 50 C-18.19364478 32.71800445 -9.2859837 16.0645393 0 0 Z " fill="#767877" transform="translate(521,298)"/>
<path d="M0 0 C3.45810308 2.8433292 5.48684936 4.87012023 6.09375 9.421875 C6.3492734 15.76737274 4.9988999 19.9386944 0.625 24.6875 C-3.01917773 26.79302491 -6.13046849 27.24751898 -10.1875 26.3125 C-13.7062794 24.32560301 -15.88542092 22.21873723 -17.1875 18.3125 C-18.18118412 7.02359686 -18.18118412 7.02359686 -15.4375 2.6875 C-10.77141423 -2.23781276 -6.18707926 -3.27551255 0 0 Z " fill="#F7F8F8" transform="translate(759.1875,750.6875)"/>
<path d="M0 0 C3.0717718 1.71077974 5.40485654 3.80971307 7 7 C7.52917341 13.22796396 7.70505664 18.70706194 4 24 C2.09550515 26.19749406 0.78298134 26.88101034 -2.08203125 27.31640625 C-6.0793356 27.52190614 -8.41645123 27.33523014 -11.9375 25.3125 C-16.03515418 20.71816047 -16.44041336 16.43883595 -16.32421875 10.44140625 C-15.84632223 6.84278784 -14.3599082 4.69703794 -12 2 C-7.97818385 -0.68121076 -4.72763609 -0.81344335 0 0 Z " fill="#F8F7F8" transform="translate(524,750)"/>
<path d="M0 0 C9.54001399 4.29824806 17.68546105 9.70959975 26 16 C26.86882812 16.65226562 27.73765625 17.30453125 28.6328125 17.9765625 C33.04707499 21.74980997 36.41569273 26.45606436 40 31 C40.56203125 31.68449219 41.1240625 32.36898437 41.703125 33.07421875 C46.0735145 38.56020768 49.08761177 44.64011606 52 51 C52.38414062 51.8146875 52.76828125 52.629375 53.1640625 53.46875 C54.17651634 56.53449807 54.19578694 59.09169439 54.125 62.3125 C54.10695313 63.38113281 54.08890625 64.44976562 54.0703125 65.55078125 C54.04710937 66.35902344 54.02390625 67.16726563 54 68 C53.34 68 52.68 68 52 68 C51.83886719 67.27039063 51.67773438 66.54078125 51.51171875 65.7890625 C49.56830707 58.32857215 46.68099623 52.18889012 42.6875 45.625 C42.23785889 44.87686035 41.78821777 44.1287207 41.32495117 43.35791016 C36.73707705 36.04173681 30.94916867 30.59036061 24.25 25.1875 C23.32703125 24.43855469 22.4040625 23.68960937 21.453125 22.91796875 C18.95841488 20.9177494 18.95841488 20.9177494 16 19 C16 18.34 16 17.68 16 17 C14.824375 16.690625 14.824375 16.690625 13.625 16.375 C8.68064249 14.49955405 3.92528234 12.62860403 0 9 C-0.84496969 5.84166818 -0.63697133 3.18485666 0 0 Z " fill="#1C3C5B" transform="translate(477,440)"/>
<path d="M0 0 C0.66 0 1.32 0 2 0 C3.73180856 16.95729219 -3.62846968 28.02541893 -14 41 C-14.95519531 42.20269531 -14.95519531 42.20269531 -15.9296875 43.4296875 C-20.64521121 49.05422783 -25.89258014 52.99070737 -32 57 C-32.91265625 57.83337891 -32.91265625 57.83337891 -33.84375 58.68359375 C-36.99489231 60.60738896 -39.60186184 60.28883717 -43.25 60.1875 C-44.51328125 60.16042969 -45.7765625 60.13335938 -47.078125 60.10546875 C-48.04234375 60.07066406 -49.0065625 60.03585937 -50 60 C-47.78919998 57.48345104 -45.27536281 55.86637829 -42.41918945 54.14794922 C-22.55121488 42.12821661 -5.6612788 22.8934169 0 0 Z " fill="#1B213C" transform="translate(529,562)"/>
<path d="M0 0 C3.63 0 7.26 0 11 0 C11 14.52 11 29.04 11 44 C7.37 44 3.74 44 0 44 C0 29.48 0 14.96 0 0 Z " fill="#5F6163" transform="translate(553,741)"/>
<path d="M0 0 C2.91691525 -0.05401695 5.83282724 -0.09368066 8.75 -0.125 C9.575 -0.14175781 10.4 -0.15851562 11.25 -0.17578125 C12.04921875 -0.18222656 12.8484375 -0.18867187 13.671875 -0.1953125 C14.4050293 -0.20578613 15.13818359 -0.21625977 15.89355469 -0.22705078 C18.33992539 0.03664008 19.91604264 0.70590223 22 2 C23.56700442 5.13400885 23.85164561 8.63155095 23 12 C20.86364975 14.4673341 19.18346705 15.82294804 15.90136719 16.31396484 C13.48420276 16.39359028 11.1038039 16.34916954 8.6875 16.25 C7.85154297 16.23195313 7.01558594 16.21390625 6.15429688 16.1953125 C4.10236772 16.14841126 2.05103244 16.07667411 0 16 C0 10.72 0 5.44 0 0 Z " fill="#F9F9F9" transform="translate(638,735)"/>
<path d="M0 0 C0.49029622 7.23186925 0.49029622 7.23186925 -1.875 10.9375 C-4.87496345 13.84922923 -5.61914695 13.97581885 -9.9375 14.25 C-12.54681467 14.20737962 -13.72789934 14.16155977 -16 12.8125 C-17.41113901 10.25481055 -17.56152444 8.87781273 -17 6 C-12.64703016 1.08535663 -6.33470893 0 0 0 Z " fill="#F6F5F5" transform="translate(710,764)"/>
<path d="M0 0 C0.62790698 8.1627907 0.62790698 8.1627907 -1.875 11.5 C-5.8038274 14.27328993 -9.27269713 14.53170073 -14 14 C-16 12.8125 -16 12.8125 -17 11 C-17.5625 8.5625 -17.5625 8.5625 -17 6 C-12.12692755 1.73606161 -6.44385234 0 0 0 Z " fill="#F7F6F6" transform="translate(398,764)"/>
<path d="M0 0 C10.0144956 -0.02323256 20.02898473 -0.04097054 30.04350185 -0.05181217 C34.69429417 -0.05701719 39.34506795 -0.06407135 43.99584961 -0.07543945 C48.48920434 -0.08635325 52.98254131 -0.09229475 57.47590828 -0.09487724 C59.18499086 -0.09671624 60.89407254 -0.1003072 62.60314751 -0.10573006 C79.09240764 -0.15594041 79.09240764 -0.15594041 87 1 C87 1.33 87 1.66 87 2 C57.95301204 2.87551922 29.04381918 3.03076809 0 2 C0 1.34 0 0.68 0 0 Z " fill="#ABABAB" transform="translate(496,346)"/>
<path d="M0 0 C3.63 0 7.26 0 11 0 C11 3.63 11 7.26 11 11 C7.37 11 3.74 11 0 11 C0 7.37 0 3.74 0 0 Z " fill="#686A6C" transform="translate(553,725)"/>
<path d="M0 0 C1.11181641 0.00193359 2.22363281 0.00386719 3.36914062 0.00585938 C4.52220703 0.01810547 5.67527344 0.03035156 6.86328125 0.04296875 C7.99701172 0.04361328 9.13074219 0.04425781 10.29882812 0.04492188 C16.98145719 0.07958681 23.54260525 0.41203485 30.17578125 1.23046875 C30.17578125 1.89046875 30.17578125 2.55046875 30.17578125 3.23046875 C30.8925 3.35550781 31.60921875 3.48054688 32.34765625 3.609375 C35.18637988 4.23279635 37.72643174 5.09711902 40.42578125 6.16796875 C41.2971875 6.50699219 42.16859375 6.84601563 43.06640625 7.1953125 C45.17578125 8.23046875 45.17578125 8.23046875 46.17578125 10.23046875 C45.02078125 9.81796875 43.86578125 9.40546875 42.67578125 8.98046875 C40.8431854 8.39482267 39.00975237 7.81179381 37.17578125 7.23046875 C36.16257812 6.87082031 35.149375 6.51117188 34.10546875 6.140625 C19.87773814 1.74722687 4.90378072 2.8697604 -9.82421875 3.23046875 C-10.15421875 3.89046875 -10.48421875 4.55046875 -10.82421875 5.23046875 C-10.82421875 4.24046875 -10.82421875 3.25046875 -10.82421875 2.23046875 C-7.06221582 0.4945897 -4.1313209 -0.01698487 0 0 Z " fill="#828C8F" transform="translate(623.82421875,358.76953125)"/>
<path d="M0 0 C0.66 0 1.32 0 2 0 C2.66 1.32 3.32 2.64 4 4 C3.34 4 2.68 4 2 4 C2.01160156 5.09054687 2.02320313 6.18109375 2.03515625 7.3046875 C2.11340001 18.2416983 1.72232369 29.08775276 1 40 C-1 38 -1 38 -1.13525391 34.28466797 C-1.09288067 32.6868607 -1.03920509 31.08932853 -0.9765625 29.4921875 C-0.95153656 28.65156769 -0.92651062 27.81094788 -0.90072632 26.94485474 C-0.81841854 24.25449942 -0.72187164 21.56486653 -0.625 18.875 C-0.56677139 17.05341513 -0.50946789 15.23180043 -0.453125 13.41015625 C-0.31282386 8.93968712 -0.15974899 4.46981473 0 0 Z " fill="#808E9A" transform="translate(531,474)"/>
<path d="M0 0 C0.88365234 0.00902344 1.76730469 0.01804687 2.67773438 0.02734375 C4.84777359 0.05080363 7.01767247 0.08667135 9.1875 0.125 C9.1875 0.455 9.1875 0.785 9.1875 1.125 C-6.55737472 3.42112756 -6.55737472 3.42112756 -13.8125 3.125 C-14.1425 3.785 -14.4725 4.445 -14.8125 5.125 C-14.8125 4.135 -14.8125 3.145 -14.8125 2.125 C-9.96827153 -0.42248246 -5.32089624 -0.10316428 0 0 Z " fill="#99A2A1" transform="translate(627.8125,358.875)"/>
<path d="M0 0 C0.68359375 1.734375 0.68359375 1.734375 1 4 C-0.21484375 6.140625 -0.21484375 6.140625 -1.9375 8.25 C-2.50339844 8.95640625 -3.06929688 9.6628125 -3.65234375 10.390625 C-4.31943359 11.18726563 -4.31943359 11.18726563 -5 12 C-5.66 11.67 -6.32 11.34 -7 11 C-6.57847656 10.37351562 -6.15695312 9.74703125 -5.72265625 9.1015625 C-4.90087891 7.87566406 -4.90087891 7.87566406 -4.0625 6.625 C-3.24458984 5.40683594 -3.24458984 5.40683594 -2.41015625 4.1640625 C-0.98906121 2.07280816 -0.98906121 2.07280816 0 0 Z " fill="#8D9090" transform="translate(498,593)"/>
<path d="M0 0 C0.33 0 0.66 0 1 0 C1.33 4.29 1.66 8.58 2 13 C-2 8 -2 8 -1.953125 5.76171875 C-1.30208333 3.84114583 -0.65104167 1.92057292 0 0 Z " fill="#1E5784" transform="translate(382,379)"/>
<path d="M0 0 C-1.1858237 3.37503669 -2.27573689 5.64722731 -5 8 C-5.33 6.35 -5.66 4.7 -6 3 C-2.25 0 -2.25 0 0 0 Z " fill="#848F96" transform="translate(369,313)"/>
<path d="M0 0 C0.66 0 1.32 0 2 0 C2 2.31 2 4.62 2 7 C0.68 7.33 -0.64 7.66 -2 8 C-1.34 5.36 -0.68 2.72 0 0 Z " fill="#424B5C" transform="translate(529,562)"/>
</svg>
